<svg width="16" height="23" viewBox="0 0 16 23" fill="none" xmlns="http://www.w3.org/2000/svg">
<path d="M8.02821 0H0V21.8994C0 22.7896 0.999295 23.3108 1.72298 22.7977L7.99919 18.3595L14.2754 22.7977C15.0007 23.3108 15.9984 22.7896 15.9984 21.8994V0H8.02821Z" fill="#5AAC73"/>
<path d="M12.12 7.52148C11.7267 7.52148 11.4141 7.83549 11.4141 8.23042V11.1859C11.4141 11.5809 11.7267 11.8949 12.12 11.8949C12.5133 11.8949 12.826 11.5809 12.826 11.1859V8.23042C12.826 7.83549 12.5133 7.52148 12.12 7.52148Z" fill="white"/>
<path d="M3.87978 7.52148C3.48651 7.52148 3.17383 7.83549 3.17383 8.23042V11.1859C3.17383 11.5809 3.48651 11.8949 3.87978 11.8949C4.27305 11.8949 4.58574 11.5809 4.58574 11.1859V8.23042C4.58574 7.83549 4.27305 7.52148 3.87978 7.52148Z" fill="white"/>
<path d="M9.54532 4.85106L10.0434 3.94789C10.0708 3.89772 10.0546 3.83945 10.0047 3.81031C9.98855 3.80222 9.97405 3.79736 9.95632 3.79736C9.92086 3.79736 9.88701 3.81517 9.86767 3.84916L9.36319 4.76204C8.95058 4.57752 8.488 4.47555 7.99964 4.47555C7.51127 4.47555 7.04869 4.57914 6.63608 4.76204L6.1316 3.84916C6.11226 3.81517 6.07841 3.79736 6.04295 3.79736C6.02683 3.79736 6.01072 3.80222 5.9946 3.81031C5.94463 3.83783 5.9269 3.8961 5.95592 3.94789L6.45395 4.85106C5.49656 5.3512 4.85024 6.30292 4.84863 7.39384H11.149C11.149 6.30292 10.5011 5.3512 9.54371 4.85106H9.54532ZM6.54582 6.23494C6.40238 6.23494 6.2831 6.11517 6.2831 5.97111C6.2831 5.82706 6.40238 5.70729 6.54582 5.70729C6.68927 5.70729 6.80854 5.82706 6.80854 5.97111C6.80854 6.11517 6.68927 6.23494 6.54582 6.23494ZM9.45345 6.23494C9.31 6.23494 9.19073 6.11517 9.19073 5.97111C9.19073 5.82706 9.31 5.70729 9.45345 5.70729C9.5969 5.70729 9.71617 5.82706 9.71617 5.97111C9.71617 6.11517 9.5969 6.23494 9.45345 6.23494Z" fill="white"/>
<path d="M4.84961 12.23C4.84961 12.654 5.18969 12.9956 5.61197 12.9956H6.11646V14.5607C6.11646 14.9556 6.42914 15.2697 6.82241 15.2697C7.21568 15.2697 7.52836 14.9556 7.52836 14.5607V12.9956H8.46964V14.5607C8.46964 14.9556 8.78232 15.2697 9.17559 15.2697C9.56886 15.2697 9.88154 14.9556 9.88154 14.5607V12.9956H10.386C10.8083 12.9956 11.1484 12.654 11.1484 12.23V7.64453H4.84961V12.23Z" fill="white"/>
</svg>
