<?xml version="1.0" encoding="utf-8"?>
<!-- Generator: Adobe Illustrator 27.0.0, SVG Export Plug-In . SVG Version: 6.00 Build 0)  -->
<svg version="1.1" id="레이어_1" xmlns="http://www.w3.org/2000/svg" xmlns:xlink="http://www.w3.org/1999/xlink" x="0px"
	 y="0px" viewBox="0 0 24 24" style="enable-background:new 0 0 24 24;" xml:space="preserve">
<style type="text/css">
	.st0{fill-rule:evenodd;clip-rule:evenodd;fill:#FFFFFF;}
</style>
<path class="st0" d="M14,5c0,1.1-0.9,2-2,2s-2-0.9-2-2s0.9-2,2-2S14,3.9,14,5z M14,12c0,1.1-0.9,2-2,2s-2-0.9-2-2s0.9-2,2-2
	S14,10.9,14,12z M12,21c1.1,0,2-0.9,2-2s-0.9-2-2-2s-2,0.9-2,2S10.9,21,12,21z"/>
</svg>
