<svg width="16" height="23" viewBox="0 0 16 23" fill="none" xmlns="http://www.w3.org/2000/svg">
<path d="M8.02821 0H0V21.8994C0 22.7896 0.999295 23.3108 1.72298 22.7977L7.99919 18.3595L14.2754 22.7977C15.0007 23.3108 15.9984 22.7896 15.9984 21.8994V0H8.02821Z" fill="#EC6B77"/>
<path d="M10.4751 3.77148H5.52539V4.53545H10.4751V3.77148Z" fill="white"/>
<path d="M11.4643 8.35858C10.5955 7.63184 10.0943 6.55548 10.0943 5.42086V4.91748H5.90692V5.42086C5.90692 6.55548 5.40566 7.63184 4.53692 8.35858L3.62305 9.12417L7.81041 15.2424V11.0179C7.37524 10.9289 7.04966 10.5437 7.04966 10.0807C7.04966 9.55309 7.47517 9.12417 8.00222 9.12417C8.52926 9.12417 8.95477 9.55147 8.95477 10.0807C8.95477 10.5437 8.62758 10.9289 8.19402 11.0179V15.2424L12.3814 9.12417L11.4675 8.35858H11.4643Z" fill="white"/>
<path d="M10.4751 3.77148H5.52539V4.53545H10.4751V3.77148Z" fill="white"/>
<path d="M11.4643 8.35858C10.5955 7.63184 10.0943 6.55548 10.0943 5.42086V4.91748H5.90692V5.42086C5.90692 6.55548 5.40566 7.63184 4.53692 8.35858L3.62305 9.12417L7.81041 15.2424V11.0179C7.37524 10.9289 7.04966 10.5437 7.04966 10.0807C7.04966 9.55309 7.47517 9.12417 8.00222 9.12417C8.52926 9.12417 8.95477 9.55147 8.95477 10.0807C8.95477 10.5437 8.62758 10.9289 8.19402 11.0179V15.2424L12.3814 9.12417L11.4675 8.35858H11.4643Z" fill="white"/>
</svg>
