<svg width="17" height="23" viewBox="0 0 17 23" fill="none" xmlns="http://www.w3.org/2000/svg">
<path d="M8.06207 0H0V21.8992C0 22.7894 1.00351 23.3106 1.73025 22.7975L8.03294 18.3594L14.3356 22.7975C15.064 23.3106 16.0659 22.7894 16.0659 21.8992V0H8.06207Z" fill="#4C4C4C"/>
<path d="M8.10525 7.01464C7.65205 7.01464 6.95121 6.49993 6.21314 6.51774C5.23877 6.53069 4.3437 7.08262 3.84194 7.95826C2.83034 9.7144 3.58136 12.309 4.56868 13.7365C5.05263 14.4309 5.62399 15.2127 6.38147 15.1884C7.10821 15.1576 7.38013 14.7174 8.26225 14.7174C9.14436 14.7174 9.38553 15.1884 10.1543 15.1706C10.9361 15.1576 11.433 14.4633 11.9105 13.7624C12.4624 12.9564 12.6923 12.173 12.7052 12.1309C12.6858 12.1244 11.1838 11.5466 11.166 9.8099C11.153 8.35643 12.3507 7.66206 12.4074 7.63131C11.7244 6.63266 10.6755 6.52097 10.3097 6.49508C9.35316 6.42062 8.55359 7.01626 8.10686 7.01626L8.10525 7.01464ZM9.71895 5.54984C10.122 5.06588 10.3874 4.38932 10.3146 3.71924C9.73838 3.74352 9.04239 4.10446 8.62642 4.58841C8.25415 5.01733 7.93206 5.70522 8.01784 6.36397C8.65718 6.41415 9.31593 6.0354 9.71895 5.55145" fill="white"/>
</svg>
