<svg width="16" height="23" viewBox="0 0 16 23" fill="none" xmlns="http://www.w3.org/2000/svg">
<path d="M8.02901 0H0V21.8094C0 22.6959 0.999395 23.215 1.72315 22.704L8 18.2841L14.2768 22.704C15.0022 23.215 16 22.6959 16 21.8094V0H8.02901Z" fill="#628FD3"/>
<path d="M8.00026 3.67383C5.3712 3.67383 3.24023 4.52654 3.24023 5.57752V6.52855C3.24023 7.57953 5.3712 8.43224 8.00026 8.43224C10.6293 8.43224 12.7603 7.57953 12.7603 6.52855V5.57752C12.7603 4.52654 10.6293 3.67383 8.00026 3.67383Z" fill="white"/>
<path d="M8.00026 9.38638C6.59627 9.38638 5.28094 9.16071 4.28154 8.76095C3.91241 8.61749 3.56262 8.4289 3.24023 8.19678V10.339C3.24023 11.39 5.3712 12.2427 8.00026 12.2427C10.6293 12.2427 12.7603 11.39 12.7603 10.339V8.19839C12.4395 8.43051 12.0897 8.6191 11.719 8.76256C10.7196 9.16232 9.40425 9.38799 8.00026 9.38799V9.38638Z" fill="white"/>
<path d="M8.00026 13.194C6.59627 13.194 5.28094 12.9683 4.28154 12.5686C3.91241 12.4251 3.56262 12.2365 3.24023 12.0044V13.194C3.24023 14.245 5.3712 15.0977 8.00026 15.0977C10.6293 15.0977 12.7603 14.245 12.7603 13.194V12.006C12.4379 12.2381 12.0881 12.4267 11.719 12.5686C10.7196 12.9683 9.40425 13.194 7.99865 13.194H8.00026Z" fill="white"/>
</svg>
