<svg width="17" height="23" viewBox="0 0 17 23" fill="none" xmlns="http://www.w3.org/2000/svg">
<path d="M8.06207 0H0V21.8992C0 22.7894 1.00351 23.3106 1.73025 22.7975L8.03294 18.3594L14.3356 22.7975C15.064 23.3106 16.0659 22.7894 16.0659 21.8992V0H8.06207Z" fill="#F19F62"/>
<path d="M11.4948 9.51589L13.6135 9.53531C13.5827 8.62892 13.3432 7.77432 12.9418 7.01683L10.9688 6.99902C11.2908 7.80345 11.4689 8.65158 11.4948 9.51589Z" fill="white"/>
<path d="M10.1611 13.933C9.6852 14.6111 9.17697 15.1145 8.74805 15.469C10.2776 15.2181 11.6113 14.3667 12.4934 13.1641L10.645 13.1479C10.501 13.415 10.3407 13.6772 10.1611 13.933Z" fill="white"/>
<path d="M10.917 12.5867L12.8577 12.6046C13.2833 11.8568 13.5488 11.007 13.6054 10.099L11.49 10.0796C11.4495 10.9569 11.2585 11.7937 10.917 12.5867Z" fill="white"/>
<path d="M9.99719 13.1418L8.05653 13.124L8.03711 15.3042C8.67159 14.8478 9.41936 14.1194 9.99719 13.1402V13.1418Z" fill="white"/>
<path d="M10.2367 5.61052C10.4131 5.87597 10.5717 6.15112 10.7125 6.43275L12.5949 6.44894C11.7338 5.19617 10.3937 4.29625 8.83984 4.01624C9.35293 4.46458 9.84335 5.01975 10.2367 5.61052Z" fill="white"/>
<path d="M10.9241 10.0747L8.08516 10.0488L8.0625 12.5608L10.2945 12.5803C10.6376 11.8551 10.8772 11.0167 10.9241 10.0747Z" fill="white"/>
<path d="M9.76748 5.92308C9.19451 5.062 8.56327 4.49388 8.13759 4.17341L8.11816 6.41027L10.075 6.42807C9.98113 6.25812 9.87754 6.08979 9.76748 5.9247V5.92308Z" fill="white"/>
<path d="M10.3565 6.99257L8.11153 6.97314L8.08887 9.48516L10.9278 9.51105C10.9003 8.63379 10.7093 7.79214 10.3549 6.99419L10.3565 6.99257Z" fill="white"/>
<path d="M4.69396 6.94261L2.72093 6.9248C2.30496 7.6742 2.05084 8.52395 2.00391 9.43034L4.12261 9.44977C4.16307 8.58707 4.3573 7.74056 4.69396 6.94261Z" fill="white"/>
<path d="M4.67969 10.0177C4.71044 10.9614 4.93542 11.803 5.26399 12.5346L7.49599 12.554L7.51865 10.042L4.67969 10.0161V10.0177Z" fill="white"/>
<path d="M4.68521 9.45476L7.52418 9.48065L7.54684 6.96864L5.30189 6.94922C4.93447 7.7407 4.7273 8.57911 4.68359 9.45638L4.68521 9.45476Z" fill="white"/>
<path d="M5.91328 5.88905C5.79998 6.05253 5.69477 6.21924 5.59766 6.38757L7.5545 6.40537L7.57392 4.16852C7.14339 4.48252 6.50082 5.03769 5.91328 5.88905Z" fill="white"/>
<path d="M5.3754 13.8894C5.2006 13.6304 5.04521 13.3666 4.90602 13.0963L3.05762 13.0801C3.91869 14.2989 5.23621 15.1729 6.76089 15.4513C6.33845 15.0887 5.83831 14.5773 5.3754 13.891V13.8894Z" fill="white"/>
<path d="M7.47397 15.3006L7.49339 13.1203L5.55273 13.1025C6.11276 14.0915 6.84759 14.8344 7.47397 15.3006Z" fill="white"/>
<path d="M4.11546 10.0131L2 9.99365C2.04046 10.9017 2.28972 11.7563 2.70246 12.5121L4.64312 12.5299C4.31617 11.732 4.13974 10.8903 4.11546 10.0131Z" fill="white"/>
<path d="M5.44768 5.56839C5.8507 4.98409 6.35084 4.43701 6.87201 4C5.31334 4.2525 3.95698 5.12814 3.07324 6.36472L4.95563 6.38091C5.1013 6.10252 5.26478 5.8306 5.44606 5.56839H5.44768Z" fill="white"/>
</svg>
